<svg t="1655030179436" class="icon" viewBox="0 0 1024 1024" version="1.1" xmlns="http://www.w3.org/2000/svg" p-id="2329" width="200" height="200"><path d="M218.783 942.358c-2.633 9.824-12.73 15.653-22.552 13.022-9.824-2.633-15.653-12.73-13.02-22.553l60.304-225.06 35.573 9.532-60.305 225.06z m37.144-213.092L200.166 937.37a0.86 0.86 0 1 0 1.661 0.444L257.59 729.71l-1.662-0.445z" fill="#91000A" p-id="2330"></path><path d="M249.721 718.516l18.617 4.988-58.032 216.584a9.637 9.637 0 1 1-18.618-4.989l58.032-216.583z" fill="#FFE400" p-id="2331"></path><path d="M255.26 720l-57.34 214a9.637 9.637 0 0 0 7.77 12.01 9.637 9.637 0 0 1-14.002-10.91l58.032-216.584 5.54 1.485z" fill="#FFA700" p-id="2332"></path><path d="M289.703 231.709a95.086 95.086 0 1 0 183.691 49.22 95.086 95.086 0 1 0-183.691-49.22z" fill="#D8000F" p-id="2333"></path><path d="M240.482 415.4a95.086 95.086 0 1 0 183.691 49.22 95.086 95.086 0 1 0-183.691-49.22z" fill="#D8000F" p-id="2334"></path><path d="M191.262 599.09a95.086 95.086 0 1 0 183.692 49.22 95.086 95.086 0 1 0-183.692-49.22z" fill="#D8000F" p-id="2335"></path><path d="M307.718 531.855a95.67 95.67 0 0 1 15.758 5.738c-45.075-3.906-87.827 24.925-99.943 70.145s10.492 91.565 51.478 110.72a95.693 95.693 0 0 1-16.512-2.91c-50.726-13.593-80.828-65.732-67.236-116.457 13.591-50.724 65.73-80.827 116.455-67.236z m49.22-183.69a95.67 95.67 0 0 1 15.757 5.735c-45.074-3.906-87.826 24.927-99.942 70.147-12.117 45.22 10.491 91.565 51.479 110.72a95.693 95.693 0 0 1-16.514-2.912c-50.725-13.591-80.827-65.73-67.236-116.455 13.593-50.724 65.73-80.827 116.457-67.236z m49.22-183.692a95.67 95.67 0 0 1 15.758 5.735c-45.075-3.905-87.827 24.927-99.943 70.147-12.116 45.221 10.492 91.564 51.478 110.72a95.693 95.693 0 0 1-16.512-2.91c-50.726-13.592-80.828-65.731-67.236-116.457 13.591-50.725 65.73-80.827 116.455-67.235z" fill="#C40714" p-id="2336"></path><path d="M242.507 407.847l183.69 49.221-4.052 15.126-183.692-49.22z" fill="#FFE400" p-id="2337"></path><path d="M242.507 407.847l32.534 8.72a112.693 112.693 0 0 0-4.055 15.125l-32.534-8.717 4.055-15.126z" fill="#FFA700" p-id="2338"></path><path d="M193.287 591.538l183.691 49.223-4.053 15.127-183.691-49.22z" fill="#FFE400" p-id="2339"></path><path d="M193.287 591.538l32.533 8.72a112.693 112.693 0 0 0-4.054 15.125l-32.534-8.716 4.054-15.129z" fill="#FFA700" p-id="2340"></path><path d="M291.726 224.157l183.69 49.219-4.051 15.127-183.691-49.22z" fill="#FFE400" p-id="2341"></path><path d="M291.726 224.157l32.534 8.717A112.693 112.693 0 0 0 320.206 248l-32.534-8.716 4.054-15.127z" fill="#FFA700" p-id="2342"></path><path d="M408.43 155.995c55.407 14.846 88.289 71.797 73.442 127.205-10.993 41.025-45.069 69.701-84.509 75.797 31.11 24.999 46.282 66.87 35.289 107.894-10.992 41.026-45.068 69.701-84.51 75.797 31.11 25 46.282 66.87 35.29 107.896-14.848 55.407-71.798 88.288-127.205 73.441-55.407-14.846-88.29-71.797-73.443-127.206 10.993-41.024 45.07-69.699 84.51-75.796-31.11-24.999-46.283-66.87-35.29-107.895 10.993-41.024 45.068-69.7 84.51-75.796-31.11-24.999-46.282-66.87-35.29-107.895 14.848-55.408 71.799-88.289 127.206-73.442zM191.263 599.09c-13.592 50.725 16.51 102.864 67.236 116.457l1.52 0.395c50.243 12.592 101.48-17.414 114.935-67.631 10.873-40.58-6.217-82.066-39.46-103.995l-0.69-0.452-0.565-0.36a95.042 95.042 0 0 0-26.521-11.65 95.042 95.042 0 0 0-28.792-3.174l-0.672 0.038c-40.083 2.033-76.043 29.513-86.991 70.372z m49.219-183.69c-10.948 40.858 6.456 82.636 40.15 104.444l0.564 0.363a95.042 95.042 0 0 0 26.522 11.647 95.042 95.042 0 0 0 28.792 3.175l0.671-0.037c40.085-2.035 76.044-29.513 86.993-70.373 10.948-40.86-6.455-82.637-40.15-104.446l-0.564-0.362a95.042 95.042 0 0 0-26.521-11.648 95.042 95.042 0 0 0-28.794-3.174l-0.67 0.037c-40.085 2.034-76.044 29.513-86.993 70.373z m232.913-134.474c13.592-50.724-16.511-102.864-67.236-116.455-50.724-13.593-102.863 16.51-116.455 67.234-10.948 40.86 6.454 82.637 40.15 104.447l0.564 0.361a95.042 95.042 0 0 0 26.522 11.649 95.042 95.042 0 0 0 28.792 3.174l0.671-0.038c40.084-2.033 76.044-29.513 86.992-70.372z m404.461 712.58c4.038 11.096-1.682 23.364-12.778 27.402-11.094 4.039-23.363-1.682-27.402-12.777l-103.287-283.78 40.18-14.623 103.287 283.78zM756.888 734.844l97.285 267.283a3.825 3.825 0 0 0 7.188-2.615l-97.283-267.283-7.19 2.615z" fill="#91000A" p-id="2343"></path><path d="M745.639 729.6l23.683-8.622 100.287 275.53a12.603 12.603 0 0 1-23.684 8.621L745.639 729.6z" fill="#FFE400" p-id="2344"></path><path d="M752.685 727.034l99.09 272.244a12.603 12.603 0 0 0 17.335 7.033 12.603 12.603 0 0 1-23.187-1.182L745.64 729.6l7.046-2.566z" fill="#FFA700" p-id="2345"></path><path d="M423.331 178.142a124.343 124.343 0 1 0 233.688-85.056 124.343 124.343 0 1 0-233.688 85.056z" fill="#D8000F" p-id="2346"></path><path d="M508.387 411.83a124.343 124.343 0 1 0 233.688-85.055 124.343 124.343 0 1 0-233.688 85.055z" fill="#D8000F" p-id="2347"></path><path d="M593.442 645.519a124.343 124.343 0 1 0 233.688-85.056 124.343 124.343 0 1 0-233.688 85.056z" fill="#D8000F" p-id="2348"></path><path d="M667.76 486.147a125.108 125.108 0 0 1 21.18-5.674c-51.213 29.625-75.383 92.575-54.445 150.103 20.94 57.529 79.918 90.215 138.192 79.99a125.096 125.096 0 0 1-19.873 9.27c-64.53 23.486-135.885-9.787-159.372-74.318-23.487-64.531 9.786-135.885 74.317-159.371zM497.647 18.768a125.108 125.108 0 0 1 21.18-5.673c-51.211 29.626-75.382 92.576-54.444 150.104 20.94 57.527 79.919 90.215 138.193 79.99a125.143 125.143 0 0 1-19.874 9.268l0.082-0.03a125.1 125.1 0 0 1 21.097-5.644c-51.21 29.627-75.381 92.576-54.442 150.103 20.938 57.529 79.916 90.215 138.19 79.99a125.096 125.096 0 0 1-19.87 9.27c-64.533 23.487-135.886-9.787-159.373-74.317-23.488-64.532 9.785-135.884 74.316-159.372l-0.08 0.03c-64.511 23.43-135.814-9.843-159.291-74.346-23.488-64.531 9.785-135.885 74.316-159.373z" fill="#C40714" p-id="2349"></path><path d="M504.89 402.223l233.688-85.057 7.004 19.246-233.687 85.055z" fill="#FFE400" p-id="2350"></path><path d="M504.89 402.223l41.388-15.065a147.368 147.368 0 0 0 7.005 19.246l-41.388 15.063-7.006-19.244z" fill="#FFA700" p-id="2351"></path><path d="M589.945 635.91l233.689-85.055 7.004 19.245-233.69 85.055z" fill="#FFE400" p-id="2352"></path><path d="M589.945 635.91l41.389-15.063a147.368 147.368 0 0 0 7.004 19.244l-41.388 15.064-7.005-19.245z" fill="#FFA700" p-id="2353"></path><path d="M419.834 168.534L653.523 83.48l7.004 19.244-233.689 85.057z" fill="#FFE400" p-id="2354"></path><path d="M419.834 168.534l41.389-15.064a147.368 147.368 0 0 0 7.004 19.245l-41.389 15.065-7.004-19.246z" fill="#FFA700" p-id="2355"></path><path d="M494.646 10.522c69.086-25.146 145.475 10.476 170.62 79.562 19.405 53.315 2.622 110.978-37.803 146.084 53.532 0.907 103.454 34.29 122.86 87.605 19.405 53.314 2.621 110.978-37.803 146.084 53.531 0.905 103.453 34.289 122.858 87.604 25.146 69.087-10.474 145.476-79.562 170.622-69.086 25.145-145.477-10.477-170.622-79.563-19.405-53.314-2.621-110.977 37.803-146.084-53.532-0.904-103.453-34.29-122.858-87.603-19.405-53.316-2.621-110.979 37.803-146.084-53.531-0.907-103.453-34.29-122.86-87.605-25.144-69.086 10.478-145.477 79.564-170.622zM667.76 486.147a124.533 124.533 0 0 0-28.47 14.725l-1.378 0.977c-44.29 31.65-63.997 90.017-44.47 143.669 23.488 64.53 94.842 97.804 159.373 74.317l1.927-0.72c63.264-24.195 95.641-94.766 72.39-158.652-23.488-64.531-94.84-97.804-159.372-74.316z m74.316-159.373c-19.529-53.651-72.143-85.697-126.415-81.478l-1.683 0.144a124.533 124.533 0 0 0-31.274 7.018 124.533 124.533 0 0 0-28.47 14.727l-1.377 0.976c-44.29 31.649-63.997 90.017-44.47 143.67 19.528 53.652 72.143 85.695 126.415 81.477l1.682-0.142a124.533 124.533 0 0 0 31.276-7.02 124.533 124.533 0 0 0 28.469-14.726l1.38-0.977c44.287-31.649 63.995-90.017 44.467-143.667zM657.02 93.086c-23.488-64.531-94.84-97.804-159.37-74.316s-97.803 94.841-74.316 159.372c19.528 53.652 72.143 85.697 126.415 81.479l1.682-0.144a124.533 124.533 0 0 0 31.276-7.019 124.533 124.533 0 0 0 28.467-14.726l1.38-0.977c44.289-31.65 63.995-90.016 44.467-143.668z" fill="#91000A" p-id="2356"></path></svg>